<?xml version="1.0" encoding="UTF-8"?>
<svg id="Layer_1" data-name="Layer 1" xmlns="http://www.w3.org/2000/svg" viewBox="0 0 1000 600">
  <defs>
    <style>
      .cls-1 {
        fill: #f97d03;
      }
    </style>
  </defs>
  <path class="cls-1" d="m384.1,272.25c1.57-9.35,9.34-27.95,14.47-34.66,12.96,5.62,24.76,4.03,34.68-6.41,7.3-7.68,10.04-20.14,4-32.64,4-2.09,7.88-4.54,12.07-6.21,7.02-2.81,14.24-5.11,21.36-7.66,1.09-.39,1.57-.22,2.04.95,4.81,11.96,14.95,18.8,27.66,18.62,11.85-.17,22.57-8.26,26.2-19.3.06-.18.2-.34.43-.72,12.3,2.82,23.86,7.54,34.73,14.14-5.44,12.76-4.19,24.5,6.04,34.15,9.64,9.1,20.95,9.94,33.1,4.52.93,1.56,1.89,3.1,2.79,4.69,5.04,8.88,8.81,18.27,11.42,28.15.39,1.49.15,2.04-1.28,2.58-11.47,4.35-18.67,14.77-18.66,26.85.01,11.91,7.63,22.71,18.87,26.75.55.2,1.11.38,1.89.64-2.85,12.48-7.57,24.12-14.17,35-13.13-5.89-25.22-4.8-35.15,5.97-9.07,9.84-9.62,21.22-3.87,33.37-10.75,6.82-22.42,11.57-34.8,14.63-5.04-13.35-14.15-21.21-28.66-20.83-13.77.35-22.3,8.22-26.94,20.97-12.37-2.97-24.02-7.69-34.85-14.42,5.97-13.22,4.88-25.42-6.01-35.35-9.78-8.91-21.15-9.49-33.31-3.76-1.76-3.28-3.65-6.58-5.34-9.98-3.68-7.4-6.44-15.15-8.52-23.16-.39-1.5-.09-2.03,1.34-2.55,18.43-6.73,24.82-29.14,12.73-44.51-3.31-4.22-6.51-6.43-14.24-9.81Zm115.74-28.98c-31.37.07-56.7,25.43-56.68,56.76.02,31.43,25.45,56.71,56.97,56.64,31.19-.07,56.55-25.52,56.53-56.73-.02-31.25-25.57-56.74-56.82-56.67Z"/>
</svg>