<?xml version="1.0" encoding="UTF-8"?>
<svg id="Layer_1" data-name="Layer 1" xmlns="http://www.w3.org/2000/svg" viewBox="0 0 1000 600">
  <defs>
    <style>
      .cls-1 {
        fill: #f97d03;
      }
    </style>
  </defs>
  <path class="cls-1" d="m418.35,392.99c-1.1-.15-2.21-.23-3.3-.45-7.08-1.38-12.49-5.17-16.09-11.41-5.32-9.23-9.21-19.05-11.8-29.38-1.3-5.2-2.23-10.46-2.81-15.79-.58-5.33-.85-10.69-.6-16.04.19-4.13.54-8.27,1.08-12.37,1.57-12.09,5.11-23.62,10.39-34.6,3.74-7.77,8.3-15.04,13.66-21.8,7.49-9.43,16.21-17.53,26.2-24.25,10.83-7.29,22.56-12.61,35.17-15.97,5.88-1.56,11.84-2.67,17.89-3.28,4.68-.47,9.36-.74,14.06-.62,3.29.09,6.58.33,9.85.62,6.46.58,12.8,1.81,19.05,3.53,11.19,3.07,21.67,7.74,31.48,13.92.13.08.25.16.38.25.03.02.03.06.07.15-1.3.87-2.6,1.74-3.91,2.61-5.66,3.76-11.33,7.52-16.98,11.29-.42.28-.75.34-1.23.1-6.44-3.19-13.18-5.57-20.18-7.18-4.4-1.01-8.84-1.77-13.34-2.04-3.17-.19-6.36-.36-9.53-.3-9.3.17-18.37,1.74-27.21,4.66-9.94,3.29-19.09,8.09-27.4,14.46-8.52,6.52-15.7,14.27-21.55,23.26-5.11,7.85-8.93,16.29-11.5,25.29-1.65,5.78-2.71,11.68-3.22,17.68-.55,6.44-.42,12.86.38,19.26,1.18,9.36,3.68,18.37,7.62,26.95,1.19,2.59,2.58,5.1,3.87,7.65.16.31.36.47.71.42.11-.02.23,0,.34,0,53.28,0,106.55,0,159.83.01.62,0,.92-.19,1.22-.72,3.96-7.06,6.98-14.49,9.03-22.32,1.35-5.16,2.31-10.39,2.65-15.71.21-3.19.36-6.39.31-9.58-.14-9.69-1.82-19.12-4.96-28.29-1.31-3.82-2.85-7.54-4.65-11.16-.15-.31-.19-.55.02-.88,4.63-6.93,9.24-13.87,13.85-20.8.09-.14.2-.27.33-.45.12.14.22.24.29.36,6.53,10.21,11.39,21.16,14.53,32.86,1.41,5.25,2.44,10.57,3.1,15.96.51,4.19.79,8.4.85,12.62.06,4.59-.13,9.16-.62,13.71-.79,7.37-2.24,14.6-4.4,21.69-2.66,8.72-6.21,17.06-10.91,24.87-3.41,5.67-8.49,9.15-14.94,10.59-1.3.29-2.66.35-3.99.52-.17.02-.33.05-.5.07h-162.62Z"/>
  <path class="cls-1" d="m582.16,240.83c-.09.15-.18.31-.28.46-21.73,32.59-43.46,65.18-65.23,97.74-.72,1.08-1.86,1.94-2.92,2.73-9.21,6.86-22.23,5.88-30.3-2.25-3.85-3.88-6.18-8.55-6.73-13.99-.72-7.11,1.42-13.33,6.28-18.58.27-.29.59-.54.91-.76,32.56-21.71,65.13-43.41,97.7-65.11.16-.11.33-.21.5-.31.02.02.05.05.07.07Z"/>
</svg>