<?xml version="1.0" encoding="UTF-8"?>
<svg id="Layer_1" data-name="Layer 1" xmlns="http://www.w3.org/2000/svg" viewBox="0 0 32 32">
  <defs>
    <style>
      .cls-1 {
        fill: #f97d03;
      }
    </style>
  </defs>
  <path class="cls-1" d="m30.34,5.51c-.4-1.23-1.32-1.88-2.62-1.97-.4-.03-.4-.03-.4-.42s-.02-.79,0-1.18C27.4.76,26.43,0,25.4,0c-3.68.03-7.36.01-11.04.01H3.34c-1.15,0-1.89.74-1.9,1.89,0,.09,0,.19,0,.28v4.34c0,1.13.75,1.89,1.88,1.89,7.36,0,14.71,0,22.07,0,.95,0,1.59-.43,1.85-1.24.06-.19.07-.4.08-.61.01-.46.01-.92,0-1.38,0-.24.09-.3.31-.3.8.02,1.49.66,1.52,1.47.02.73.02,1.45,0,2.18-.02.79-.67,1.42-1.46,1.45-.41.01-.82,0-1.24,0h-9.65c-1.85,0-3.09,1.24-3.09,3.1,0,.42,0,.41-.4.47-.6.08-.94.55-.98,1.24-.02.47.03.94.03,1.41,0,4.81,0,9.63,0,14.44,0,.18,0,.35.04.53.1.49.5.83,1,.83.66,0,1.31,0,1.97,0,.54,0,.97-.39,1.04-.93.01-.1.01-.19.01-.29,0-4.28,0-8.55,0-12.83,0-1.12,0-2.25.01-3.37,0-.5-.45-1-.99-1.01-.34,0-.37-.15-.37-.43,0-.52.09-1,.49-1.36.34-.31.75-.43,1.21-.43,3.59,0,7.18,0,10.77,0,1.34,0,2.39-.75,2.84-2.02.04-.12.08-.25.09-.37.06-1.15.24-2.33-.12-3.45Zm-22.74.19c-1.31,0-2.37-1.06-2.37-2.37h4.74c0,1.31-1.06,2.37-2.37,2.37Zm7.09-.12c-1.03,1.15-3.06,1.02-3.06,1.02,0,0-.37-2,.66-3.15,1.03-1.15,3.06-1.02,3.06-1.02,0,0,.37,2-.66,3.15Zm2.32.12c0-1.31,1.06-2.37,2.37-2.37s2.37,1.06,2.37,2.37h-4.74Z"/>
</svg>