<?xml version="1.0" encoding="UTF-8"?>
<svg id="Layer_1" data-name="Layer 1" xmlns="http://www.w3.org/2000/svg" viewBox="0 0 1000 600">
  <defs>
    <style>
      .cls-1 {
        fill: #f97d03;
      }
    </style>
  </defs>
  <path class="cls-1" d="m624.13,209.22c-3.46-10.62-11.45-16.24-22.67-17.07-3.48-.25-3.48-.23-3.48-3.67s-.17-6.8.04-10.19c.64-10.16-7.76-16.78-16.64-16.72-31.84.25-63.65.1-95.49.1h-95.47c-9.98.02-16.37,6.37-16.43,16.37,0,.79-.02,1.6-.02,2.39v37.53c.02,9.75,6.51,16.31,16.29,16.31,63.65.02,127.31.02,190.96,0,8.19,0,13.77-3.73,16.04-10.73.54-1.66.64-3.49.68-5.27.1-3.98.12-7.97.02-11.95-.06-2.07.77-2.63,2.72-2.57,6.95.19,12.9,5.75,13.11,12.72.17,6.27.17,12.57-.02,18.84-.21,6.83-5.79,12.28-12.65,12.53-3.57.12-7.12.04-10.7.04h-83.52c-16.04-.02-26.76,10.73-26.78,26.84,0,3.59,0,3.57-3.48,4.04-5.21.71-8.17,4.77-8.49,10.73-.21,4.05.23,8.13.23,12.18.02,41.64,0,83.29.04,124.93,0,1.53.06,3.07.35,4.56.83,4.25,4.29,7.16,8.61,7.22,5.68.06,11.37.04,17.07,0,4.71-.04,8.36-3.34,9-8.03.12-.83.12-1.68.12-2.53,0-37.01-.02-74,0-111.01,0-9.73.08-19.46.12-29.19.02-4.36-3.88-8.69-8.59-8.77-2.97-.06-3.22-1.33-3.24-3.71-.02-4.52.77-8.61,4.27-11.8,2.97-2.72,6.51-3.71,10.5-3.71,31.06.06,62.13.04,93.19.02,11.6,0,20.72-6.51,24.56-17.45.37-1.02.73-2.12.79-3.19.54-9.98,2.09-20.14-1.04-29.81Zm-196.73,1.66c-11.33,0-20.5-9.19-20.5-20.52h41.03c0,11.33-9.19,20.52-20.52,20.52Zm61.36-1c-8.88,9.96-26.47,8.78-26.47,8.78,0,0-3.17-17.34,5.71-27.28,8.88-9.96,26.45-8.78,26.45-8.78,0,0,3.19,17.32-5.7,27.28Zm20.08,1c0-11.33,9.17-20.52,20.5-20.52s20.52,9.19,20.52,20.52h-41.03Z"/>
</svg>