<?xml version="1.0" encoding="UTF-8"?>
<svg id="Layer_1" data-name="Layer 1" xmlns="http://www.w3.org/2000/svg" viewBox="0 0 32 32">
  <defs>
    <style>
      .cls-1 {
        fill: #ffffff;
      }
    </style>
  </defs>
  <path class="cls-1" d="m32,2.74v13.06c0,1.2-.98,2.18-2.18,2.18-.6,0-1.15-.24-1.54-.64-.39-.39-.64-.94-.64-1.54v-7.79l-12.91,12.91c-.85.85-2.23.85-3.08,0-.43-.43-.64-.98-.64-1.54s.21-1.12.64-1.54l12.91-12.91h-7.79c-1.2,0-2.18-.98-2.18-2.18,0-.6.24-1.15.64-1.54.39-.39.94-.64,1.54-.64h13.05c.07,0,.14,0,.21.01.04,0,.07,0,.1.01.14.02.28.05.41.1.02,0,.05.01.07.03.02,0,.04.01.06.02.14.06.26.13.39.21.02.01.05.03.07.05.03.02.06.04.08.06.11.09.21.19.29.29.02.03.04.05.06.08.02.02.04.05.05.07.07.1.13.21.18.32.01.03.03.06.04.09.01.03.03.06.04.1.03.07.05.14.06.21,0,.03.01.06.02.09,0,.03.01.07.02.1,0,.04.01.07.01.1,0,.07.01.14.01.21Z"/>
  <path class="cls-1" d="m21.3,29.26c0,.6-.24,1.15-.64,1.54s-.94.64-1.54.64H2.18c-1.2,0-2.18-.98-2.18-2.18V12.32c0-1.2.98-2.18,2.18-2.18.6,0,1.15.24,1.54.64.39.39.64.94.64,1.54v14.76h14.75c1.2,0,2.18.98,2.18,2.18Z"/>
</svg>