<?xml version="1.0" encoding="UTF-8"?>
<svg id="Layer_1" data-name="Layer 1" xmlns="http://www.w3.org/2000/svg" viewBox="0 0 1000 600">
  <defs>
    <style>
      .cls-1 {
        fill: #f97d03;
      }
    </style>
  </defs>
  <path class="cls-1" d="m429.65,295.63v-5.3c14.56,21.81,28.62,42.93,42.99,64.49h-21.56c0,7.63-.06,14.81,0,22,.06,19.79,15.76,36.06,34.99,36.44,20.3.38,37.13-15.07,37.38-35.18.44-29.06.19-58.12,0-87.25,0-1.2-1.32-3.09-2.52-3.59-6.11-2.52-11.03-6.37-15.13-11.54-8.95-11.41-9.83-29.38-2.08-41.54,4.41-6.87,10.84-11.98,18.09-14.75v-46.65c0-4.29,3.47-7.75,7.75-7.75h6.43c4.29,0,7.75,3.47,7.75,7.75v45.51c14,3.78,25.34,16.58,26.54,29.94,1.58,17.84-6.37,32.21-21.62,38.58-2.65,1.07-3.15,2.4-3.09,4.92.06,28.12.32,56.29-.19,84.41-.06,7.38-1.2,15.19-3.97,21.87-13.49,33.22-50.43,46.65-81.95,29.5-17.84-9.65-28.87-25.22-29.5-45.89-.82-28.62-.25-57.3-.32-85.99Zm105.02-27.8c7.69.06,14.44-6.87,14.37-14.75-.13-8.13-6.49-14.31-14.69-14.31-7.94.06-14.44,6.62-14.44,14.62s6.81,14.37,14.75,14.44Z"/>
</svg>