<?xml version="1.0" encoding="UTF-8"?>
<svg id="Layer_1" data-name="Layer 1" xmlns="http://www.w3.org/2000/svg" viewBox="0 0 32 32">
  <defs>
    <style>
      .cls-1 {
        fill: #1677f0;
      }
    </style>
  </defs>
  <path class="cls-1" d="m8.9,15.23c.36-.06.74-.14,1.13-.17,1.01-.07,1.77-.49,2.29-1.4,1.16-2.05,2.84-3.62,4.72-5,.33-.25.64-.54.94-.82.86-.78,1.25-1.79,1.42-2.91.16-1.01.38-2,1.02-2.85.18-.24.38-.34.67-.35,1.59-.08,2.75.61,3.3,2.1.59,1.61.61,3.25-.07,4.83-.28.65-.8,1.2-1.2,1.8-.23.34-.43.7-.69,1.14.26,0,.4,0,.54,0,1.68-.02,3.36-.1,5.02.23.65.13,1.32.3,1.91.61,1.57.84,1.9,2.49.83,3.96-.22.3-.29.52-.07.85.18.28.31.6.4.92.29,1.06.33,1.99-.53,3.02.89,1.49.79,2.77-.38,4.21-.28.34-.41.64-.27,1.08.4,1.28-.68,3.32-2.39,3.53-1.16.15-2.33.26-3.49.25-2.11-.02-4.22-.09-6.32-.24-1.41-.1-2.76-.55-4.06-1.11-.3-.13-.6-.23-.89-.36-.82-.37-1.64-.34-2.46.02-.12.05-.25.11-.38.15-.59.19-1-.1-1-.71,0-2.62,0-5.24,0-7.86,0-1.62,0-3.25,0-4.93Zm12.12-2.31c-.01-1.17.24-2.22.98-3.15.44-.55.89-1.13,1.18-1.77.51-1.15.4-2.37.06-3.55-.2-.7-.66-1.18-1.4-1.37-.34-.09-.56,0-.65.32-.18.6-.4,1.21-.48,1.82-.24,1.84-1.19,3.23-2.64,4.31-1.91,1.42-3.64,3.02-4.82,5.13-.57,1.03-1.47,1.54-2.61,1.65-.36.03-.42.19-.42.51.01,3.3,0,6.61,0,9.91,0,.13.01.25.03.45,1.31-.54,2.46-.12,3.61.39,1.33.59,2.71,1.08,4.17,1.16,2.31.13,4.62.17,6.93.2.72.01,1.44-.12,2.17-.18,1.15-.11,1.66-1.32,1.45-2.12-.07-.26-.1-.53-.18-.78-.08-.25.01-.41.17-.61.38-.5.78-.99,1.07-1.55.42-.83.19-1.49-.59-2.01-.29-.19-.57-.38-.91-.6.32-.16.57-.29.82-.41.89-.44,1.18-.98.9-1.93-.17-.57-.5-1.09-.8-1.61-.12-.2-.16-.35-.02-.54.23-.32.44-.64.67-.96.58-.81.36-1.72-.54-2.12-.29-.13-.6-.23-.91-.3-1.64-.37-3.31-.31-4.98-.28-.74.01-1.47,0-2.24,0Z"/>
  <path class="cls-1" d="m7.67,21.94c0,1.93,0,3.87,0,5.8,0,.98-.45,1.43-1.43,1.43-1.42,0-2.85,0-4.27,0-.87,0-1.33-.47-1.33-1.36,0-2.89,0-5.78,0-8.67,0-1.01,0-2.02,0-3.02,0-.95.46-1.41,1.41-1.41,1.42,0,2.85,0,4.27,0,.86,0,1.35.48,1.35,1.35,0,1.96,0,3.92,0,5.88Zm-1.17,5.16c0-.45-.37-.81-.82-.82-.46,0-.83.38-.81.86.01.46.38.81.83.8.45-.01.8-.39.8-.84Z"/>
</svg>