<?xml version="1.0" encoding="UTF-8"?>
<svg id="Layer_1" data-name="Layer 1" xmlns="http://www.w3.org/2000/svg" viewBox="0 0 32 32">
  <defs>
    <style>
      .cls-1 {
        fill: #fd0000;
      }
    </style>
  </defs>
  <path class="cls-1" d="m23.13,16.78c-.37.06-.74.14-1.11.16-1.03.07-1.81.5-2.33,1.43-1.15,2.05-2.84,3.61-4.71,5-.69.52-1.39,1.07-1.76,1.87-.29.6-.47,1.26-.62,1.91-.23,1-.4,2.01-1.05,2.86-.17.23-.37.32-.64.34-1.63.09-2.82-.62-3.36-2.17-.57-1.63-.6-3.3.14-4.89.28-.61.77-1.13,1.15-1.7.23-.34.43-.7.72-1.16-.28,0-.43,0-.58,0-1.67.03-3.35.09-5.01-.22-.53-.1-1.06-.24-1.55-.44-1.85-.73-2.38-2.6-1.19-4.19.22-.3.24-.49.07-.81-.22-.42-.4-.89-.51-1.36-.21-.96-.07-1.85.66-2.62-.58-.72-.83-1.54-.54-2.42.22-.65.57-1.28.94-1.86.21-.33.36-.58.23-.98-.43-1.36.68-3.4,2.41-3.61,1.03-.13,2.07-.19,3.1-.23.94-.04,1.89,0,2.83,0,3.07-.05,6.05.37,8.86,1.71.84.4,1.67.34,2.51-.02.11-.05.22-.1.34-.13.61-.19,1.02.09,1.02.74,0,2.89,0,5.78,0,8.66,0,1.37,0,2.75,0,4.16Zm-1.34-12.02c-1.45.61-2.68-.04-3.96-.51-1.08-.4-2.2-.76-3.33-.97-2.31-.42-4.66-.31-6.99-.3-.89,0-1.78.09-2.66.21-1.09.15-1.69,1.06-1.46,2.15.05.26.15.53.16.79.01.18-.04.38-.14.53-.36.56-.81,1.08-1.12,1.67-.39.77-.15,1.44.57,1.92.3.2.6.4.96.63-.32.16-.58.3-.84.43-.86.42-1.16.95-.89,1.87.17.58.5,1.12.8,1.66.12.22.17.38.02.58-.22.31-.43.62-.65.93-.61.84-.43,1.77.53,2.13.8.3,1.66.51,2.51.55,1.72.08,3.45.03,5.18.03.16,0,.31,0,.49,0-.01.92-.11,1.76-.57,2.5-.35.55-.74,1.09-1.15,1.6-1.05,1.3-.92,3.84-.29,4.94.25.44.62.7,1.09.84.46.14.6.09.77-.36.13-.34.22-.69.31-1.04.18-.75.29-1.52.54-2.24.42-1.2,1.28-2.09,2.28-2.83,1.91-1.42,3.64-3.02,4.81-5.13.58-1.05,1.5-1.56,2.65-1.67.32-.03.39-.15.39-.45,0-3.33,0-6.67,0-10,0-.13-.01-.26-.02-.46Z"/>
  <path class="cls-1" d="m31.43,10.03c0,1.94,0,3.89,0,5.83,0,.98-.46,1.44-1.43,1.44-1.43,0-2.86,0-4.29,0-.84,0-1.34-.49-1.34-1.33,0-3.95,0-7.91,0-11.86,0-.86.49-1.34,1.37-1.34,1.43,0,2.86,0,4.29,0,.93,0,1.4.45,1.4,1.39,0,1.96,0,3.91,0,5.87Zm-4.25-5.18c0-.46-.35-.83-.8-.83-.44,0-.82.36-.83.81-.01.47.37.86.83.85.45,0,.81-.37.81-.83Z"/>
</svg>